<?xml version="1.0" standalone="no"?>
<!DOCTYPE svg PUBLIC "-//W3C//DTD SVG 20010904//EN"
 "http://www.w3.org/TR/2001/REC-SVG-20010904/DTD/svg10.dtd">
<svg version="1.0" xmlns="http://www.w3.org/2000/svg"
 width="800.000000pt" height="800.000000pt" viewBox="0 0 800.000000 800.000000"
 preserveAspectRatio="xMidYMid meet">
<metadata>
Created by potrace 1.11, written by Peter Selinger 2001-2013
</metadata>
<g transform="translate(0.000000,800.000000) scale(0.100000,-0.100000)"
fill="#000000" stroke="none">
<path d="M3913 7945 c-53 -32 -86 -97 -81 -159 l3 -44 -55 -25 c-30 -14 -156
-75 -280 -135 -124 -60 -268 -130 -320 -155 -52 -24 -176 -84 -275 -132 -99
-48 -225 -109 -280 -135 -55 -26 -167 -80 -250 -120 -82 -40 -215 -104 -295
-142 -133 -65 -202 -98 -510 -246 -58 -28 -170 -82 -250 -121 l-145 -70 -22
25 c-78 86 -222 64 -277 -43 -35 -70 -8 -172 59 -216 25 -16 33 -28 31 -43 -2
-11 -21 -92 -41 -180 -41 -177 -43 -185 -50 -216 -2 -13 -18 -81 -35 -153 -59
-256 -122 -532 -151 -665 -16 -74 -41 -180 -54 -235 -13 -55 -26 -111 -28
-125 -3 -14 -10 -43 -16 -65 -8 -33 -50 -218 -65 -290 -3 -11 -19 -81 -36
-155 -17 -74 -54 -234 -81 -355 -28 -121 -52 -227 -54 -235 -2 -8 -11 -51 -21
-95 -9 -44 -18 -81 -20 -83 -1 -2 -17 -6 -36 -9 -59 -9 -98 -34 -125 -81 -71
-120 9 -257 148 -255 25 0 55 5 65 11 17 9 49 -27 284 -321 145 -183 467 -586
715 -897 248 -311 543 -681 656 -823 l206 -258 -24 -46 c-28 -57 -29 -102 -3
-153 56 -109 203 -125 283 -31 14 17 28 43 31 59 l7 28 1478 0 1479 0 11 -36
c42 -140 251 -150 312 -16 25 55 24 93 -4 149 l-24 46 209 263 c115 145 222
279 238 298 24 29 504 633 588 739 15 18 34 41 42 51 8 10 183 229 389 487
l374 470 36 -13 c157 -54 288 127 191 263 -22 30 -84 64 -119 65 -25 1 -32 7
-40 32 -8 28 -25 100 -35 151 -3 11 -14 63 -26 115 -30 129 -60 262 -65 280
-1 8 -30 134 -63 280 -34 146 -97 425 -141 620 -45 195 -86 373 -91 395 -6 22
-12 49 -15 60 -5 30 -41 189 -87 385 -22 96 -41 182 -43 190 -2 8 -15 67 -30
130 -25 109 -29 127 -39 175 -2 11 -7 32 -11 46 -6 23 -1 30 27 47 108 67 100
236 -15 291 -71 35 -143 23 -197 -32 l-25 -25 -70 34 c-65 32 -170 82 -585
282 -85 41 -216 104 -290 139 -74 36 -196 95 -270 130 -74 36 -189 91 -255
123 -319 154 -419 202 -527 253 -64 31 -214 104 -334 162 -119 58 -242 117
-273 130 l-56 25 3 48 c9 135 -138 226 -255 157z m-43 -261 c0 -12 -37 -62
-207 -274 -7 -8 -59 -73 -116 -145 -57 -71 -237 -298 -401 -502 l-296 -373
-824 0 c-755 0 -824 1 -830 16 -4 9 -5 18 -4 19 3 2 174 85 353 170 61 29 182
87 270 130 88 43 205 99 260 125 112 53 302 145 570 275 99 48 207 100 240
115 33 16 161 77 285 137 124 60 275 133 335 162 61 29 164 78 230 110 66 32
123 56 128 54 4 -2 7 -11 7 -19z m405 -39 c215 -103 377 -181 540 -260 310
-150 471 -228 560 -270 50 -23 158 -75 240 -115 401 -194 487 -235 570 -275
50 -24 180 -86 290 -140 110 -53 230 -110 266 -127 53 -25 65 -34 62 -49 -5
-18 -33 -19 -829 -19 l-824 0 -244 308 c-135 169 -274 342 -308 386 -35 43
-78 97 -96 120 -18 22 -40 49 -48 59 -142 173 -324 410 -324 420 0 16 10 28
19 23 3 -2 60 -30 126 -61z m-340 -5 c3 -5 -17 -110 -46 -232 -28 -123 -52
-227 -53 -233 -8 -37 -123 -542 -158 -692 l-22 -93 -373 0 c-205 0 -373 3
-373 6 0 5 21 32 92 119 9 11 45 56 80 100 34 44 68 87 75 95 7 8 71 89 143
180 72 91 139 174 148 185 10 11 40 49 67 85 27 36 54 70 60 76 5 6 82 101
170 212 88 111 165 201 172 202 6 0 14 -4 18 -10z m205 -47 c25 -32 50 -65 57
-73 7 -8 81 -100 164 -205 83 -104 160 -201 171 -214 12 -14 44 -54 72 -90 28
-36 149 -189 269 -338 119 -150 217 -275 217 -278 0 -3 -168 -5 -374 -5 l-374
0 -7 33 c-4 17 -45 199 -92 402 -47 204 -87 379 -89 390 -2 11 -15 70 -29 130
-24 106 -52 229 -60 269 -3 10 -2 23 1 27 12 19 31 6 74 -48z m-111 -10 c10
-49 256 -1130 266 -1170 l5 -23 -300 0 c-165 0 -300 2 -300 4 0 2 25 111 55
242 31 132 73 318 95 414 49 220 107 470 122 533 8 33 17 47 29 47 13 0 20
-13 28 -47z m-1219 -1238 c0 -4 -175 -227 -252 -320 -9 -11 -55 -69 -103 -130
-48 -60 -93 -116 -100 -123 -12 -13 -3 -17 -462 204 -138 67 -293 141 -548
264 -82 39 -151 73 -153 74 -1 2 0 11 4 20 6 15 74 16 810 16 442 0 804 -2
804 -5z m835 -7 c-2 -7 -6 -24 -9 -38 -2 -14 -11 -54 -19 -90 -26 -108 -89
-383 -93 -410 -3 -14 -9 -38 -14 -55 -4 -16 -32 -134 -61 -262 l-52 -232 -27
14 c-15 8 -69 34 -121 58 -52 25 -159 76 -239 115 -224 108 -541 260 -582 280
-21 9 -38 20 -38 23 0 5 140 185 243 313 106 132 139 173 150 186 7 9 29 37
50 63 l38 47 389 0 c307 0 388 -3 385 -12z m670 -10 c3 -13 17 -72 31 -133 14
-60 28 -119 30 -130 5 -26 96 -426 141 -620 54 -236 58 -206 -33 -250 -44 -21
-170 -82 -282 -136 l-202 -98 -168 81 c-92 44 -218 104 -279 134 -62 29 -113
58 -113 63 0 5 7 43 16 83 9 40 20 89 24 108 4 19 40 175 79 347 40 171 73
320 75 330 6 29 47 206 52 226 5 16 29 17 314 17 l310 0 5 -22z m892 -75 c43
-54 85 -107 95 -118 9 -11 82 -103 163 -204 164 -206 159 -191 70 -231 -22
-10 -130 -62 -240 -115 -235 -114 -413 -200 -545 -262 -52 -25 -107 -52 -122
-59 l-27 -14 -12 58 c-7 31 -14 64 -15 72 -2 8 -8 33 -13 55 -14 53 -82 353
-88 385 -2 14 -10 50 -18 80 -8 30 -32 138 -55 240 -23 102 -43 191 -45 198
-3 9 78 12 385 12 l389 0 78 -97z m1597 81 c4 -9 5 -18 4 -20 -2 -1 -64 -32
-138 -67 -74 -35 -207 -99 -295 -142 -727 -352 -717 -347 -730 -333 -7 7 -86
105 -175 218 -90 113 -189 237 -222 277 -32 39 -58 74 -58 77 0 3 362 6 804 6
736 0 804 -1 810 -16z m-5388 -174 c125 -60 228 -110 229 -110 2 0 122 -58
267 -128 144 -70 295 -143 335 -162 l72 -35 -182 -229 c-101 -126 -187 -230
-192 -230 -14 -1 -792 978 -787 992 2 6 10 12 18 12 8 0 116 -49 240 -110z
m5429 101 c5 -9 -70 -105 -550 -706 -114 -143 -213 -269 -221 -280 -18 -25 -1
-42 -218 230 l-175 219 97 48 c53 26 192 92 307 148 418 201 502 242 610 295
111 54 139 63 150 46z m-5370 -483 c193 -242 371 -466 397 -497 l47 -58 -232
-291 c-128 -160 -235 -288 -239 -284 -7 7 -28 95 -68 277 -9 44 -41 181 -70
305 -28 124 -53 232 -55 240 -4 16 -44 194 -50 220 -2 8 -10 44 -18 80 -8 36
-33 147 -56 248 -23 100 -39 187 -36 192 3 6 12 10 18 9 7 0 170 -199 362
-441z m5430 432 c5 -9 -19 -124 -150 -695 -35 -154 -66 -291 -69 -305 -7 -32
-42 -183 -66 -285 -10 -44 -21 -91 -23 -105 -3 -14 -10 -43 -15 -65 -6 -22
-14 -56 -17 -75 -3 -19 -8 -36 -11 -39 -6 -6 0 -12 -157 186 -75 94 -143 180
-151 190 -9 10 -38 47 -67 83 -28 36 -62 77 -75 92 l-24 28 158 197 c86 109
162 205 169 213 6 8 36 45 65 81 29 37 63 79 76 95 272 344 329 413 339 413 6
1 14 -3 18 -9z m-5835 -112 c13 -57 25 -107 26 -113 4 -20 84 -372 105 -460
11 -49 22 -97 24 -105 2 -8 45 -197 95 -419 73 -321 90 -408 81 -423 -9 -14
-392 -499 -455 -575 -35 -42 -531 -664 -552 -692 -9 -12 -15 -13 -26 -3 -13
10 -11 27 13 129 16 65 30 129 33 143 2 14 19 86 36 160 17 74 33 144 36 155
2 11 26 119 54 240 28 121 62 272 77 335 28 125 31 138 93 410 23 102 44 196
46 210 3 14 7 31 9 38 4 10 53 221 80 342 2 8 18 78 35 155 17 77 33 147 35
155 2 8 9 38 15 65 14 60 11 48 49 215 17 74 31 136 31 137 0 2 8 3 18 3 16 0
23 -18 42 -102z m5920 98 c0 -2 39 -172 86 -378 47 -205 87 -380 89 -388 2 -8
10 -46 19 -85 8 -38 49 -218 91 -400 42 -181 82 -359 90 -395 7 -36 16 -72 19
-80 3 -8 7 -26 10 -40 3 -19 56 -255 81 -360 9 -39 110 -480 137 -600 16 -74
32 -138 34 -142 3 -4 -4 -11 -14 -17 -16 -9 -29 2 -88 77 -38 48 -263 331
-501 628 -237 298 -437 550 -443 561 -13 19 -7 49 95 493 37 161 106 463 110
480 2 8 32 143 68 300 36 157 68 300 72 318 5 23 12 32 26 32 10 0 19 -2 19
-4z m-4508 -550 c176 -84 348 -166 533 -256 94 -45 216 -104 272 -130 l101
-48 -10 -44 c-5 -24 -11 -52 -14 -63 -4 -23 -53 -236 -91 -398 l-25 -108 -136
-66 c-314 -151 -423 -203 -427 -203 -3 0 -58 69 -282 350 -7 8 -36 44 -65 81
-29 36 -64 80 -78 98 -14 18 -30 38 -36 44 -5 7 -65 81 -132 166 l-123 153 34
42 c62 76 171 213 260 325 48 61 92 111 97 111 5 0 60 -24 122 -54z m3325
-144 c221 -276 218 -273 215 -284 -2 -7 -105 -140 -169 -218 -7 -8 -125 -157
-263 -330 -138 -173 -257 -321 -264 -328 -10 -10 -40 0 -162 59 -82 39 -209
100 -281 135 -73 35 -133 65 -133 67 0 2 -16 73 -36 158 -37 160 -42 181 -48
214 -7 35 -47 209 -51 223 -3 8 42 35 123 74 70 33 192 92 272 130 80 39 190
92 245 118 55 26 161 77 235 114 74 36 140 66 147 66 6 0 82 -89 170 -198z
m-3731 -477 c65 -82 124 -157 131 -165 218 -272 433 -544 433 -549 -1 -3 -35
-23 -78 -43 -42 -20 -165 -79 -272 -131 -107 -52 -215 -104 -240 -115 -25 -11
-128 -61 -230 -110 -102 -50 -186 -89 -188 -88 -1 2 -32 133 -68 292 -79 346
-74 323 -80 354 -3 14 -10 45 -15 68 l-9 44 132 166 c73 92 135 169 138 172 3
3 21 25 40 50 19 25 39 50 45 57 5 6 37 45 70 87 33 42 62 72 65 68 4 -4 60
-74 126 -157z m1521 84 c93 -44 207 -99 256 -121 48 -23 87 -45 87 -50 0 -5
-10 -12 -22 -17 -13 -5 -131 -62 -263 -126 -132 -64 -264 -128 -293 -142 -29
-14 -55 -23 -58 -21 -3 4 50 252 90 423 2 6 9 38 16 73 8 34 15 62 17 62 1 0
78 -36 170 -81z m993 19 c7 -35 14 -67 15 -73 2 -5 24 -102 49 -214 26 -112
45 -205 42 -208 -3 -3 -42 13 -88 35 -46 22 -164 79 -263 126 -99 48 -206 100
-239 116 l-59 29 124 59 c68 33 185 89 259 125 74 37 137 66 140 67 4 0 12
-28 20 -62z m1700 -233 c123 -154 229 -288 237 -297 13 -15 10 -40 -31 -220
-26 -112 -60 -264 -77 -338 -17 -74 -36 -154 -43 -177 l-11 -43 -184 91 c-102
49 -204 99 -228 110 -23 11 -138 66 -255 122 -117 57 -241 116 -275 133 -34
16 -63 32 -63 36 0 3 33 47 73 96 39 49 83 104 97 122 14 18 32 41 40 50 8 10
121 151 250 313 129 163 238 293 241 289 4 -4 107 -133 229 -287z m-2172 -36
c59 -29 170 -82 247 -119 77 -37 187 -90 245 -118 l106 -51 88 -386 c58 -255
85 -389 79 -398 -53 -69 -189 -243 -194 -247 -3 -3 -67 -82 -142 -177 -75 -94
-142 -175 -149 -179 -7 -5 -188 -9 -402 -9 l-388 0 -47 55 c-48 56 -374 465
-425 533 l-28 37 21 93 c12 50 23 101 25 112 5 25 92 402 108 470 16 66 15 63
17 79 0 8 45 36 99 62 53 26 156 75 227 109 72 35 186 90 255 124 69 33 131
61 138 61 8 0 62 -23 120 -51z m-893 -366 c-20 -86 -66 -286 -70 -303 -82
-365 -78 -353 -98 -328 -10 13 -28 34 -40 48 -12 14 -56 68 -97 120 -41 52
-83 104 -92 115 -9 11 -39 49 -67 85 l-50 65 77 37 c101 50 447 217 449 217 1
1 -5 -25 -12 -56z m-1729 -258 c36 -159 67 -297 69 -305 2 -8 8 -35 14 -60 6
-25 11 -51 11 -57 0 -7 -55 -39 -122 -72 -258 -124 -407 -195 -503 -241 -55
-26 -194 -93 -308 -149 -115 -56 -212 -101 -217 -101 -4 0 -10 7 -13 15 -6 13
71 111 801 1027 108 135 198 243 199 240 2 -4 32 -137 69 -297z m3411 244 c70
-34 185 -89 256 -123 l127 -61 -167 -210 c-92 -115 -174 -218 -183 -227 -15
-16 -19 -5 -54 150 -20 92 -39 174 -41 182 -29 126 -47 209 -51 225 -2 11 -10
44 -17 73 -8 28 -10 52 -6 52 4 0 66 -28 136 -61z m1861 -183 c96 -121 178
-223 181 -226 3 -3 20 -23 36 -45 16 -22 37 -49 47 -60 9 -11 136 -170 282
-353 255 -321 290 -374 233 -356 -11 4 -104 47 -206 96 -207 100 -374 181
-567 273 -312 150 -364 177 -364 188 0 7 9 50 21 97 11 47 44 195 75 330 30
135 56 255 59 268 3 13 10 20 16 16 6 -3 90 -106 187 -228z m-3946 -207 c79
-100 148 -187 153 -193 6 -6 27 -33 49 -59 l38 -48 -36 -162 c-88 -393 -99
-442 -107 -447 -4 -3 -260 -5 -570 -5 -489 0 -563 2 -570 15 -7 12 -21 72 -55
225 -23 107 -76 334 -79 346 -6 17 20 31 360 194 204 98 461 222 560 270 50
24 95 44 102 44 6 1 76 -81 155 -180z m2656 115 c76 -37 182 -88 237 -114 55
-26 181 -87 280 -135 99 -48 221 -107 272 -131 72 -34 90 -47 87 -61 -2 -10
-20 -90 -40 -178 -19 -88 -46 -206 -60 -263 -13 -56 -26 -113 -28 -125 l-3
-22 -573 0 -573 0 -39 165 c-21 91 -40 174 -42 185 -3 11 -12 53 -20 94 -9 40
-18 76 -20 80 -3 3 -7 25 -10 47 -6 41 -4 45 91 165 223 282 286 359 295 359
6 0 71 -30 146 -66z m-3809 -727 c33 -148 61 -276 61 -285 0 -16 -45 -17 -622
-16 -343 1 -629 2 -635 3 -7 0 -13 8 -13 17 0 10 55 42 163 93 89 43 243 118
342 165 99 48 238 115 309 149 72 34 173 83 225 108 53 26 99 44 102 40 4 -3
34 -127 68 -274z m4881 210 c147 -70 347 -166 525 -252 77 -37 213 -103 303
-146 107 -51 162 -83 162 -93 0 -9 -3 -17 -7 -17 -5 -1 -291 -2 -636 -3 l-628
-1 5 49 c4 27 9 53 12 57 3 5 7 19 9 31 12 63 98 434 102 441 2 4 12 3 21 -2
9 -5 69 -34 132 -64z m-3230 -223 c121 -151 220 -279 220 -282 0 -4 -128 -7
-285 -7 l-286 0 4 30 c3 16 22 102 42 190 20 88 38 165 39 170 8 44 40 175 43
175 1 0 102 -124 223 -276z m1660 -48 c27 -120 50 -223 50 -230 0 -8 -77 -11
-289 -11 -183 0 -287 3 -283 10 3 5 14 18 23 30 10 11 109 135 220 275 l203
255 13 -55 c7 -30 35 -153 63 -274z m-3235 -287 c3 -4 7 -15 9 -25 7 -32 17
-77 27 -119 49 -206 129 -570 127 -576 -3 -6 -62 21 -393 181 -192 93 -393
189 -520 250 -55 26 -179 86 -275 132 -96 47 -192 93 -213 103 -40 19 -57 42
-39 54 13 8 1269 8 1277 0z m1160 -1 c3 -3 -26 -147 -65 -319 -40 -173 -73
-322 -75 -332 -2 -10 -6 -26 -9 -35 -3 -9 -7 -28 -10 -42 -4 -19 -46 -207 -60
-265 -2 -5 -6 -27 -11 -48 -4 -20 -11 -39 -15 -42 -4 -3 -46 14 -91 36 -81 40
-354 172 -526 255 -71 33 -83 43 -89 69 -3 16 -14 66 -25 110 -10 44 -41 181
-69 305 -27 124 -55 243 -61 264 -7 25 -7 41 -1 45 13 8 1099 7 1107 -1z m857
-218 c99 -124 187 -235 195 -247 15 -22 7 -34 -226 -325 -133 -167 -248 -310
-256 -319 -7 -10 -37 -48 -67 -85 -70 -90 -87 -111 -123 -150 l-30 -33 -90 44
c-453 217 -464 223 -459 242 26 113 46 203 50 223 4 22 31 139 81 349 8 36 16
72 18 80 2 9 10 46 19 84 9 37 18 79 21 95 2 15 9 42 14 60 5 17 8 32 6 32 -2
0 2 17 9 38 7 20 16 58 20 84 5 31 12 48 23 50 9 2 151 3 316 3 l299 0 180
-225z m598 221 c0 -3 -58 -78 -75 -97 -5 -6 -68 -86 -140 -177 -71 -91 -135
-168 -141 -170 -5 -3 -35 27 -66 67 -31 39 -65 82 -76 96 -111 136 -219 276
-217 280 3 6 715 7 715 1z m683 -1 c3 -4 109 -457 123 -529 3 -12 12 -53 20
-90 9 -36 17 -73 19 -81 17 -79 86 -378 90 -391 5 -15 -30 -36 -212 -124 -120
-58 -245 -119 -278 -135 -32 -16 -63 -26 -67 -24 -5 3 -52 60 -105 127 -54 67
-103 129 -110 137 -7 8 -53 67 -103 130 -50 63 -99 124 -108 135 -119 141
-281 358 -276 368 4 7 92 118 195 247 l187 235 310 0 c171 -1 313 -3 315 -5z
m1167 1 c0 -7 -171 -755 -173 -757 -1 -1 -40 -20 -87 -42 -47 -22 -179 -86
-295 -142 -236 -115 -317 -152 -319 -148 -2 3 -83 351 -92 397 -3 12 -12 53
-20 90 -9 36 -18 75 -20 86 -2 11 -29 130 -60 264 -35 152 -52 246 -46 250 11
7 1112 9 1112 2z m1326 -3 c13 -14 -5 -35 -48 -56 -65 -31 -326 -156 -478
-229 -74 -36 -189 -92 -255 -123 -66 -32 -201 -97 -300 -145 -154 -75 -329
-159 -359 -173 -10 -5 -12 -16 81 393 41 181 78 332 83 335 12 8 1268 5 1276
-2z m-6983 -120 c45 -22 127 -62 182 -88 55 -26 172 -83 260 -125 88 -43 219
-106 290 -140 72 -34 193 -93 270 -130 77 -37 190 -91 252 -120 65 -31 116
-62 122 -74 7 -12 10 -21 7 -21 -2 0 0 -16 6 -36 5 -20 11 -44 13 -53 2 -9 49
-216 105 -461 57 -245 110 -481 120 -525 10 -44 32 -143 50 -220 17 -77 33
-147 35 -156 2 -9 8 -34 14 -55 15 -52 14 -71 -3 -77 -10 -4 -42 28 -96 96
-44 56 -93 117 -108 136 -15 19 -155 195 -312 392 -157 196 -298 374 -315 395
-16 21 -220 276 -453 568 -233 292 -447 560 -475 596 -29 36 -54 67 -57 70
-19 16 -38 54 -33 66 7 18 21 14 126 -38z m7021 37 c5 -13 -188 -266 -381
-499 -8 -10 -47 -60 -87 -110 -39 -50 -73 -93 -76 -96 -3 -3 -40 -48 -81 -100
-42 -52 -264 -332 -495 -621 -230 -290 -432 -543 -449 -564 -16 -21 -54 -68
-83 -104 -29 -36 -59 -73 -65 -81 -86 -110 -121 -148 -133 -143 -8 3 -14 9
-14 14 0 8 28 139 46 212 9 38 68 295 89 392 22 98 90 395 140 610 26 110 49
215 52 233 2 18 12 60 21 95 l17 62 75 37 c72 36 339 165 600 290 69 33 186
90 260 125 74 36 191 92 260 125 334 161 295 145 304 123z m-3487 -542 c42
-54 174 -219 293 -368 118 -148 239 -300 268 -337 l53 -67 -148 -72 c-81 -39
-179 -86 -218 -104 -38 -18 -126 -60 -194 -94 -68 -33 -131 -61 -141 -61 -9 0
-59 21 -111 46 -93 46 -197 96 -457 220 l-134 64 34 42 c85 108 602 757 629
791 17 20 35 37 40 37 5 0 43 -44 86 -97z m-2005 -232 c57 -27 184 -88 283
-136 99 -48 204 -98 233 -112 62 -28 61 -13 17 -198 -13 -55 -26 -111 -28
-125 -5 -26 -124 -546 -157 -685 -11 -44 -21 -91 -24 -105 -2 -14 -10 -50 -17
-80 -7 -30 -12 -58 -11 -62 1 -4 -7 -12 -18 -18 -15 -8 -21 -8 -24 2 -15 46
-26 86 -30 108 -2 14 -16 77 -31 140 -29 125 -33 145 -39 175 -12 57 -78 340
-81 345 -2 3 -6 21 -9 40 -3 19 -24 114 -46 210 -75 327 -111 485 -116 509 -3
14 -7 28 -10 33 -9 14 2 10 108 -41z m3918 -67 c-12 -49 -23 -98 -26 -109 -2
-11 -20 -90 -39 -175 -30 -128 -67 -291 -90 -395 -2 -11 -9 -38 -14 -60 -5
-22 -12 -51 -15 -65 -2 -14 -34 -151 -69 -305 -36 -154 -68 -295 -72 -312 -5
-24 -12 -33 -26 -33 -10 0 -19 2 -19 4 0 2 -9 39 -19 82 -11 44 -22 90 -25
104 -2 14 -14 66 -25 115 -21 84 -28 119 -36 155 -2 8 -40 177 -86 375 -45
198 -84 372 -87 386 -3 22 2 29 31 43 20 9 143 68 274 131 131 63 265 128 298
144 40 19 61 25 63 17 1 -7 -7 -52 -18 -102z m-665 -344 c15 -63 29 -126 32
-140 2 -14 22 -99 43 -190 21 -91 41 -176 43 -190 3 -14 35 -154 71 -312 36
-157 66 -289 66 -292 0 -3 -9 -6 -19 -6 -13 0 -82 79 -212 242 -106 134 -282
354 -391 491 -109 136 -198 249 -198 252 0 2 24 15 53 29 113 53 433 207 457
220 14 8 26 14 27 13 1 -1 14 -54 28 -117z m-2408 4 c120 -58 237 -114 261
-125 23 -10 42 -21 42 -23 0 -3 -127 -164 -282 -358 -155 -194 -331 -415 -391
-490 -71 -89 -116 -138 -128 -138 -23 0 -23 -9 2 103 11 50 22 99 24 107 2 8
22 96 45 195 23 99 43 189 45 200 3 11 23 99 45 195 22 96 42 184 44 195 16
83 60 245 66 245 5 0 107 -48 227 -106z m513 -247 c41 -19 167 -80 280 -134
113 -55 212 -102 220 -105 14 -5 -40 -33 -460 -235 -74 -36 -205 -99 -290
-140 -85 -42 -186 -90 -225 -108 -38 -18 -159 -76 -268 -129 -110 -53 -203
-94 -208 -90 -5 3 -9 11 -9 17 0 10 105 147 254 331 17 21 71 89 119 150 49
61 96 120 105 131 10 11 78 97 152 190 74 94 141 178 149 187 13 16 17 15 60
-7 25 -12 80 -39 121 -58z m1487 -168 c103 -129 202 -252 218 -273 17 -21 108
-136 203 -254 94 -119 172 -221 172 -228 0 -7 -4 -15 -9 -18 -5 -4 -81 28
-168 70 -87 42 -214 103 -283 136 -69 34 -190 92 -270 131 -80 38 -199 95
-265 127 -66 32 -194 93 -285 137 -91 44 -172 82 -180 85 -9 3 92 57 235 127
138 66 286 139 330 161 44 22 87 38 97 37 9 -1 101 -108 205 -238z m-701 -210
c115 -56 254 -123 309 -149 125 -60 309 -149 580 -279 116 -56 245 -118 288
-138 54 -26 77 -42 77 -55 0 -10 -6 -18 -12 -19 -17 -1 -2931 -1 -2939 0 -4 1
-9 8 -13 16 -4 12 44 40 211 120 119 58 217 105 219 105 1 0 103 49 226 108
122 60 297 144 388 188 90 43 221 107 290 141 69 34 134 62 146 62 12 1 115
-44 230 -100z"/>
</g>
</svg>
